<svg width="31" height="31" viewBox="0 0 31 31" fill="none" xmlns="http://www.w3.org/2000/svg">
<path d="M15.5 0C6.99698 0 0.0793762 6.9176 0.0793762 15.4206C0.0793762 18.9664 1.30238 22.4024 3.53187 25.1446C2.89588 26.7471 1.83068 28.1328 0.433137 29.1699C0.219197 29.3286 0.110841 29.593 0.151965 29.8563C0.192993 30.1197 0.376616 30.3385 0.628714 30.4246C1.74604 30.8063 2.91023 31 4.08905 31C5.96085 31 7.79 30.5129 9.40349 29.5881C11.3313 30.4198 13.3805 30.8413 15.5001 30.8413C24.003 30.8413 30.9206 23.9236 30.9206 15.4207C30.9206 6.9177 24.0029 0 15.5 0ZM15.5 29.4067C13.461 29.4067 11.4946 28.9771 9.65559 28.1298C9.43639 28.0288 9.18133 28.0447 8.97638 28.1722C7.51189 29.0835 5.82179 29.5653 4.08895 29.5653C3.51006 29.5653 2.93509 29.5113 2.3693 29.4042C3.56677 28.2451 4.47465 26.8268 5.02686 25.2395C5.11083 24.998 5.05995 24.73 4.89316 24.5362C2.71398 22.0032 1.51393 18.7659 1.51393 15.4206C1.51393 7.70871 7.78809 1.43455 15.5 1.43455C23.2118 1.43455 29.486 7.70871 29.486 15.4206C29.4861 23.1326 23.2119 29.4067 15.5 29.4067Z" fill="white"/>
<path d="M19.6248 10.8687H17.5973V10.205C17.5973 10.1507 17.6027 10.1159 17.6074 10.0958C17.6169 10.0942 17.6291 10.093 17.6436 10.093H19.581C19.9772 10.093 20.2982 9.77198 20.2982 9.37575V6.41656C20.2982 6.02158 19.9789 5.70091 19.5838 5.69928L16.9131 5.68848C13.7011 5.68848 12.5614 8.02479 12.5614 10.0255V10.8688H11.5662C11.17 10.8688 10.8489 11.1899 10.8489 11.5861V15.04C10.8489 15.4363 11.17 15.7573 11.5662 15.7573H12.5758V23.6743C12.5758 24.0705 12.8968 24.3916 13.293 24.3916H16.7467C17.1429 24.3916 17.4639 24.0705 17.4639 23.6743V15.7573H19.3101C19.6811 15.7573 19.9908 15.4745 20.0244 15.1052L20.3391 11.6512C20.3573 11.4505 20.2904 11.2513 20.1545 11.1026C20.0186 10.9536 19.8264 10.8687 19.6248 10.8687ZM18.6552 14.3228H16.7467C16.3504 14.3228 16.0294 14.6438 16.0294 15.04V22.957H14.0103V15.04C14.0103 14.6438 13.6893 14.3228 13.293 14.3228H12.2835V12.3034H13.2787C13.6749 12.3034 13.996 11.9823 13.996 11.5861V10.0255C13.996 9.15282 14.2802 7.12303 16.9102 7.12303L18.8637 7.13097V8.65857H17.6436C16.9303 8.65857 16.1627 9.14259 16.1627 10.2051V11.5861C16.1627 11.9823 16.4838 12.3034 16.88 12.3034H18.8392L18.6552 14.3228Z" fill="white"/>
</svg>
