<svg width="110" height="21" viewBox="0 0 110 21" fill="none" xmlns="http://www.w3.org/2000/svg">
<path d="M103.917 10.6253C103.917 13.6056 101.303 16.0837 97.9999 16.0837C94.6967 16.0837 92.0833 13.6056 92.0833 10.6253C92.0833 7.64502 94.6967 5.16699 97.9999 5.16699C101.303 5.16699 103.917 7.64502 103.917 10.6253Z" stroke="#ADFFDC"/>
<path d="M93.046 7.75256L90.2963 5.26313" stroke="#ADFFDC"/>
<path d="M90.1667 5.90918V0.999832" stroke="#ADFFDC"/>
<path d="M103.748 10.4379L106.498 8.86516" stroke="#ADFFDC"/>
<path d="M106.352 9.17839L108.845 4.91933" stroke="#ADFFDC"/>
<path d="M91.6651 11.565L88.9153 13.1377" stroke="#ADFFDC"/>
<path d="M89.0619 12.8245L86.5686 17.0836" stroke="#ADFFDC"/>
<path d="M104.335 11.4009L107.085 12.9737" stroke="#ADFFDC"/>
<path d="M106.938 12.6605L109.431 16.9195" stroke="#ADFFDC"/>
<path d="M93.046 13.4974L90.2963 15.9869" stroke="#ADFFDC"/>
<path d="M90.1667 15.3408V20.2501" stroke="#ADFFDC"/>
<path d="M102.954 7.75256L105.703 5.26313" stroke="#ADFFDC"/>
<path d="M105.833 5.90918V0.99984" stroke="#ADFFDC"/>
<path d="M102.954 13.4974L105.703 15.9869" stroke="#ADFFDC"/>
<path d="M105.833 15.3408V20.2502" stroke="#ADFFDC"/>
<path d="M100.75 5.76699C100.75 3.6407 99.5188 1.91699 98 1.91699C96.4812 1.91699 95.25 3.6407 95.25 5.76699" stroke="#ADFFDC"/>
<path d="M92.2518 10.601L89.502 9.02824" stroke="#ADFFDC"/>
<path d="M89.6486 9.34147L87.1553 5.08241" stroke="#ADFFDC"/>
<path d="M9.42969 6.27344L12.5547 13.8594L15.5938 6.41406C15.7135 6.10677 15.8021 5.84635 15.8594 5.63281C15.9167 5.41927 15.9453 5.23698 15.9453 5.08594C15.9453 5.03906 15.9427 4.99219 15.9375 4.94531C15.9323 4.89323 15.9245 4.85417 15.9141 4.82812V4.79688H17.4609V4.82812C17.3568 4.94271 17.2422 5.125 17.1172 5.375C16.9974 5.625 16.8568 5.9349 16.6953 6.30469L12.5234 16.2422H11.9297L8.89062 8.86719L6.11719 16.2422H5.53125L1.70312 6.6875C1.60938 6.46354 1.51302 6.2474 1.41406 6.03906C1.32031 5.83073 1.22917 5.64323 1.14062 5.47656C1.05729 5.3099 0.981771 5.16927 0.914062 5.05469C0.841146 4.9401 0.789062 4.86458 0.757812 4.82812V4.79688H2.92188V4.82812C2.91146 4.88542 2.90625 4.92969 2.90625 4.96094C2.90625 4.99219 2.90625 5.02865 2.90625 5.07031C2.90625 5.2474 2.92448 5.4349 2.96094 5.63281C3.0026 5.83073 3.08073 6.07031 3.19531 6.35156L6.13281 13.7734L8.9375 6.30469L9.42969 6.27344ZM20.1016 7.60156C20.612 7.60156 21.1354 7.60156 21.6719 7.60156C22.2083 7.59635 22.7057 7.59115 23.1641 7.58594C23.6224 7.57552 24.0156 7.5651 24.3438 7.55469C24.6771 7.54427 24.8958 7.52865 25 7.50781L24.6953 8.35156C24.5547 8.3151 24.3958 8.28125 24.2188 8.25C24.0625 8.22396 23.8724 8.20052 23.6484 8.17969C23.4297 8.15365 23.1745 8.14062 22.8828 8.14062C22.7786 8.14062 22.6589 8.14583 22.5234 8.15625C22.388 8.16146 22.2578 8.16927 22.1328 8.17969C21.987 8.1901 21.8385 8.20052 21.6875 8.21094V11.2969C22.1094 11.2917 22.4896 11.2812 22.8281 11.2656C23.1667 11.25 23.4557 11.2292 23.6953 11.2031C23.9766 11.1823 24.224 11.1536 24.4375 11.1172L24.25 12.0469C23.9635 12.0104 23.6745 11.9792 23.3828 11.9531C23.1328 11.9271 22.8568 11.9062 22.5547 11.8906C22.2526 11.8698 21.9635 11.8594 21.6875 11.8594V15.4062C22.1719 15.4062 22.6172 15.388 23.0234 15.3516C23.4297 15.3099 23.7839 15.2656 24.0859 15.2188C24.4401 15.1615 24.7604 15.0964 25.0469 15.0234L24.8672 16.0469C24.7891 16.0417 24.6615 16.0339 24.4844 16.0234C24.3125 16.0182 24.1302 16.013 23.9375 16.0078C23.75 16.0078 23.5729 16.0052 23.4062 16C23.2396 16 23.125 16 23.0625 16H20.1016V15.9688C20.138 15.8594 20.1693 15.7188 20.1953 15.5469C20.2266 15.375 20.25 15.1641 20.2656 14.9141C20.2865 14.6589 20.3021 14.3568 20.3125 14.0078C20.3229 13.6589 20.3281 13.25 20.3281 12.7812V10.8125C20.3281 10.3438 20.3229 9.9375 20.3125 9.59375C20.3021 9.24479 20.2865 8.94531 20.2656 8.69531C20.25 8.4401 20.2266 8.22656 20.1953 8.05469C20.1693 7.88281 20.138 7.74219 20.1016 7.63281V7.60156ZM31.4141 11.8906C31.1641 11.8906 30.9505 11.901 30.7734 11.9219C30.6016 11.9375 30.4688 11.9531 30.375 11.9688V12.7812C30.375 13.2292 30.375 13.6042 30.375 13.9062C30.3802 14.2083 30.3854 14.4609 30.3906 14.6641C30.401 14.8672 30.4089 15.0312 30.4141 15.1562C30.4193 15.276 30.4271 15.3802 30.4375 15.4688C30.5729 15.5052 30.7161 15.5286 30.8672 15.5391C31.0234 15.5495 31.1458 15.5547 31.2344 15.5547C31.9531 15.5547 32.474 15.3984 32.7969 15.0859C33.125 14.7682 33.2891 14.2786 33.2891 13.6172C33.2891 13.3672 33.25 13.1354 33.1719 12.9219C33.0938 12.7083 32.9766 12.526 32.8203 12.375C32.6641 12.224 32.4688 12.1068 32.2344 12.0234C32 11.9349 31.7266 11.8906 31.4141 11.8906ZM30.375 11.3594C30.4792 11.375 30.5729 11.3854 30.6562 11.3906C30.7396 11.3906 30.8255 11.3906 30.9141 11.3906C31.4401 11.3906 31.8568 11.2448 32.1641 10.9531C32.4766 10.6615 32.6328 10.2266 32.6328 9.64844C32.6328 9.41406 32.6016 9.19792 32.5391 9C32.4766 8.80208 32.3854 8.63281 32.2656 8.49219C32.151 8.35156 32.0052 8.24219 31.8281 8.16406C31.6562 8.08594 31.4583 8.04688 31.2344 8.04688C31.0833 8.04688 30.9557 8.05469 30.8516 8.07031C30.7474 8.08073 30.6589 8.09115 30.5859 8.10156C30.5026 8.1224 30.4323 8.14062 30.375 8.15625V11.3594ZM28.7891 7.58594C28.888 7.59115 28.9896 7.59375 29.0938 7.59375C29.1823 7.59896 29.2786 7.60156 29.3828 7.60156C29.487 7.60156 29.5885 7.60156 29.6875 7.60156C29.849 7.60156 30.0729 7.59115 30.3594 7.57031C30.6458 7.54948 31.0026 7.53906 31.4297 7.53906C31.8099 7.53906 32.1615 7.58594 32.4844 7.67969C32.8125 7.76823 33.0938 7.89844 33.3281 8.07031C33.5677 8.24219 33.7526 8.45312 33.8828 8.70312C34.0182 8.95312 34.0859 9.23698 34.0859 9.55469C34.0859 9.82552 34.0469 10.0677 33.9688 10.2812C33.8958 10.4896 33.7891 10.6745 33.6484 10.8359C33.5078 10.9922 33.3385 11.125 33.1406 11.2344C32.9427 11.3385 32.724 11.4219 32.4844 11.4844C32.8333 11.5365 33.151 11.6224 33.4375 11.7422C33.724 11.862 33.9688 12.013 34.1719 12.1953C34.375 12.3724 34.5312 12.5833 34.6406 12.8281C34.75 13.0677 34.8047 13.3359 34.8047 13.6328C34.8047 14.4557 34.5104 15.0729 33.9219 15.4844C33.3333 15.8906 32.4557 16.0938 31.2891 16.0938C31.1641 16.0938 31.0078 16.0885 30.8203 16.0781C30.638 16.0677 30.4453 16.0573 30.2422 16.0469C30.0443 16.0365 29.8516 16.026 29.6641 16.0156C29.4818 16.0052 29.3281 16 29.2031 16H28.7891V15.9688C28.8255 15.8594 28.8568 15.7188 28.8828 15.5469C28.9141 15.375 28.9375 15.1641 28.9531 14.9141C28.974 14.6589 28.9896 14.3568 29 14.0078C29.0104 13.6589 29.0156 13.25 29.0156 12.7812V10.8125C29.0156 10.3438 29.0104 9.9349 29 9.58594C28.9896 9.23698 28.974 8.9349 28.9531 8.67969C28.9375 8.42448 28.9141 8.21094 28.8828 8.03906C28.8568 7.86719 28.8255 7.72656 28.7891 7.61719V7.58594ZM43.1797 6.57812H43.0078C42.9661 6.45833 42.8984 6.32292 42.8047 6.17188C42.7161 6.02083 42.5964 5.88021 42.4453 5.75C42.2995 5.61458 42.1198 5.5026 41.9062 5.41406C41.6979 5.32552 41.4505 5.28125 41.1641 5.28125C40.9089 5.28125 40.6823 5.32031 40.4844 5.39844C40.2865 5.47656 40.1198 5.58594 39.9844 5.72656C39.8542 5.86719 39.7552 6.03385 39.6875 6.22656C39.6198 6.41927 39.5859 6.63281 39.5859 6.86719C39.5859 7.24219 39.6901 7.60156 39.8984 7.94531C40.112 8.28385 40.3776 8.61979 40.6953 8.95312C41.013 9.28646 41.3568 9.61979 41.7266 9.95312C42.0964 10.2865 42.4401 10.6328 42.7578 10.9922C43.0755 11.3516 43.3385 11.7292 43.5469 12.125C43.7604 12.5156 43.8672 12.9375 43.8672 13.3906C43.8672 13.7292 43.8073 14.0703 43.6875 14.4141C43.5729 14.7526 43.3932 15.0573 43.1484 15.3281C42.9036 15.599 42.5885 15.8203 42.2031 15.9922C41.8177 16.1589 41.3594 16.2422 40.8281 16.2422C40.5312 16.2422 40.2474 16.2135 39.9766 16.1562C39.7109 16.1042 39.4635 16.0391 39.2344 15.9609C39.0104 15.8776 38.8073 15.7891 38.625 15.6953C38.4479 15.6016 38.3021 15.5156 38.1875 15.4375L38.3672 13.7109H38.5625C38.6198 13.9557 38.7135 14.1901 38.8438 14.4141C38.974 14.6328 39.1328 14.8281 39.3203 15C39.513 15.1667 39.7318 15.3021 39.9766 15.4062C40.2214 15.5052 40.4896 15.5547 40.7812 15.5547C41.0469 15.5547 41.2839 15.5156 41.4922 15.4375C41.7057 15.3542 41.888 15.2422 42.0391 15.1016C42.1901 14.9557 42.3047 14.7839 42.3828 14.5859C42.4661 14.388 42.5078 14.1719 42.5078 13.9375C42.5078 13.6094 42.4479 13.3073 42.3281 13.0312C42.2083 12.75 42.0495 12.4844 41.8516 12.2344C41.6589 11.9844 41.4375 11.7422 41.1875 11.5078C40.9427 11.2734 40.6901 11.0391 40.4297 10.8047C40.1693 10.5651 39.9141 10.3203 39.6641 10.0703C39.4193 9.82031 39.1979 9.55469 39 9.27344C38.8073 8.98698 38.651 8.68229 38.5312 8.35938C38.4115 8.03125 38.3516 7.67188 38.3516 7.28125C38.3516 6.86979 38.4297 6.5 38.5859 6.17188C38.7474 5.83854 38.9583 5.55469 39.2188 5.32031C39.4844 5.08594 39.7839 4.90625 40.1172 4.78125C40.4505 4.65625 40.7943 4.59375 41.1484 4.59375C41.4089 4.59375 41.6484 4.61458 41.8672 4.65625C42.0859 4.69792 42.2812 4.7474 42.4531 4.80469C42.6302 4.86198 42.7839 4.91927 42.9141 4.97656C43.0443 5.03385 43.151 5.08073 43.2344 5.11719L43.1797 6.57812ZM47.9219 10.8125C47.9219 10.3438 47.9167 9.9375 47.9062 9.59375C47.8958 9.24479 47.8802 8.94531 47.8594 8.69531C47.8438 8.4401 47.8203 8.22656 47.7891 8.05469C47.763 7.88281 47.7318 7.74219 47.6953 7.63281V7.60156H49.5V7.63281C49.4635 7.74219 49.4323 7.88281 49.4062 8.05469C49.3802 8.22656 49.3568 8.4401 49.3359 8.69531C49.3203 8.94531 49.3073 9.24479 49.2969 9.59375C49.2865 9.9375 49.2812 10.3438 49.2812 10.8125V11.3281L52.8516 8.39844C53.0495 8.23698 53.1979 8.09375 53.2969 7.96875C53.401 7.84375 53.4531 7.72135 53.4531 7.60156H55.3125V7.63281C55.0781 7.6901 54.8359 7.79427 54.5859 7.94531C54.3411 8.09635 54.0807 8.28646 53.8047 8.51562L50.6875 11.0703L53.9375 14.4453C54.3698 14.8984 54.7344 15.2448 55.0312 15.4844C55.3333 15.7188 55.5651 15.8802 55.7266 15.9688V16H53.6016C53.5443 15.8958 53.4219 15.7422 53.2344 15.5391C53.0469 15.3359 52.7995 15.0729 52.4922 14.75L49.2812 11.4062V12.7812C49.2812 13.25 49.2865 13.6589 49.2969 14.0078C49.3073 14.3568 49.3203 14.6589 49.3359 14.9141C49.3568 15.1641 49.3802 15.375 49.4062 15.5469C49.4323 15.7188 49.4635 15.8594 49.5 15.9688V16H47.6953V15.9688C47.7318 15.8594 47.763 15.7188 47.7891 15.5469C47.8203 15.375 47.8438 15.1641 47.8594 14.9141C47.8802 14.6589 47.8958 14.3568 47.9062 14.0078C47.9167 13.6589 47.9219 13.25 47.9219 12.7812V10.8125ZM58.7969 10.8125C58.7969 10.3438 58.7917 9.9375 58.7812 9.59375C58.7708 9.24479 58.7552 8.94531 58.7344 8.69531C58.7188 8.4401 58.6953 8.22656 58.6641 8.05469C58.638 7.88281 58.6068 7.74219 58.5703 7.63281V7.60156H60.3828V7.63281C60.3464 7.74219 60.3125 7.88281 60.2812 8.05469C60.2552 8.22656 60.2318 8.4401 60.2109 8.69531C60.1953 8.94531 60.1823 9.24479 60.1719 9.59375C60.1615 9.9375 60.1562 10.3438 60.1562 10.8125V12.7812C60.1562 13.25 60.1615 13.6589 60.1719 14.0078C60.1823 14.3568 60.1953 14.6589 60.2109 14.9141C60.2318 15.1641 60.2552 15.375 60.2812 15.5469C60.3125 15.7188 60.3464 15.8594 60.3828 15.9688V16H58.5703V15.9688C58.6068 15.8594 58.638 15.7188 58.6641 15.5469C58.6953 15.375 58.7188 15.1641 58.7344 14.9141C58.7552 14.6589 58.7708 14.3568 58.7812 14.0078C58.7917 13.6589 58.7969 13.25 58.7969 12.7812V10.8125ZM66.1406 15.3906C66.625 15.3906 67.0703 15.3724 67.4766 15.3359C67.888 15.2943 68.2474 15.25 68.5547 15.2031C68.9141 15.1458 69.2396 15.0807 69.5312 15.0078L69.3516 16.0469C69.2786 16.0417 69.1536 16.0339 68.9766 16.0234C68.8047 16.0182 68.6224 16.013 68.4297 16.0078C68.237 16.0078 68.0573 16.0052 67.8906 16C67.724 16 67.6094 16 67.5469 16H64.5547V15.9688C64.5911 15.8594 64.6224 15.7188 64.6484 15.5469C64.6797 15.375 64.7031 15.1641 64.7188 14.9141C64.7396 14.6589 64.7552 14.3568 64.7656 14.0078C64.776 13.6589 64.7812 13.25 64.7812 12.7812V10.8125C64.7812 10.3438 64.776 9.9375 64.7656 9.59375C64.7552 9.24479 64.7396 8.94531 64.7188 8.69531C64.7031 8.4401 64.6797 8.22656 64.6484 8.05469C64.6224 7.88281 64.5911 7.74219 64.5547 7.63281V7.60156H66.3594V7.63281C66.3229 7.74219 66.2917 7.88281 66.2656 8.05469C66.2396 8.22656 66.2161 8.4401 66.1953 8.69531C66.1797 8.94531 66.1667 9.24479 66.1562 9.59375C66.1458 9.9375 66.1406 10.3438 66.1406 10.8125V15.3906ZM74.4688 15.3906C74.9531 15.3906 75.3984 15.3724 75.8047 15.3359C76.2161 15.2943 76.5755 15.25 76.8828 15.2031C77.2422 15.1458 77.5677 15.0807 77.8594 15.0078L77.6797 16.0469C77.6068 16.0417 77.4818 16.0339 77.3047 16.0234C77.1328 16.0182 76.9505 16.013 76.7578 16.0078C76.5651 16.0078 76.3854 16.0052 76.2188 16C76.0521 16 75.9375 16 75.875 16H72.8828V15.9688C72.9193 15.8594 72.9505 15.7188 72.9766 15.5469C73.0078 15.375 73.0312 15.1641 73.0469 14.9141C73.0677 14.6589 73.0833 14.3568 73.0938 14.0078C73.1042 13.6589 73.1094 13.25 73.1094 12.7812V10.8125C73.1094 10.3438 73.1042 9.9375 73.0938 9.59375C73.0833 9.24479 73.0677 8.94531 73.0469 8.69531C73.0312 8.4401 73.0078 8.22656 72.9766 8.05469C72.9505 7.88281 72.9193 7.74219 72.8828 7.63281V7.60156H74.6875V7.63281C74.651 7.74219 74.6198 7.88281 74.5938 8.05469C74.5677 8.22656 74.5443 8.4401 74.5234 8.69531C74.5078 8.94531 74.4948 9.24479 74.4844 9.59375C74.474 9.9375 74.4688 10.3438 74.4688 10.8125V15.3906Z" fill="#EFEEEE"/>
</svg>
