<svg width="20" height="34" viewBox="0 0 20 34" fill="none" xmlns="http://www.w3.org/2000/svg">
<path d="M8.69983 1.79095C8.75443 1.79095 8.7987 1.74668 8.7987 1.69208C8.7987 1.63747 8.75443 1.5932 8.69983 1.5932C8.64522 1.5932 8.60095 1.63747 8.60095 1.69208C8.60095 1.74668 8.64522 1.79095 8.69983 1.79095Z" fill="white"/>
<path d="M8.98776 1.79095C9.04237 1.79095 9.08664 1.74668 9.08664 1.69208C9.08664 1.63747 9.04237 1.5932 8.98776 1.5932C8.93315 1.5932 8.88889 1.63747 8.88889 1.69208C8.88889 1.74668 8.93315 1.79095 8.98776 1.79095Z" fill="white"/>
<path d="M9.27502 1.79095C9.32963 1.79095 9.3739 1.74668 9.3739 1.69208C9.3739 1.63747 9.32963 1.5932 9.27502 1.5932C9.22041 1.5932 9.17615 1.63747 9.17615 1.69208C9.17615 1.74668 9.22041 1.79095 9.27502 1.79095Z" fill="white"/>
<path d="M9.56234 1.79095C9.61695 1.79095 9.66122 1.74668 9.66122 1.69208C9.66122 1.63747 9.61695 1.5932 9.56234 1.5932C9.50774 1.5932 9.46347 1.63747 9.46347 1.69208C9.46347 1.74668 9.50774 1.79095 9.56234 1.79095Z" fill="white"/>
<path d="M9.85016 1.79095C9.90476 1.79095 9.94903 1.74668 9.94903 1.69208C9.94903 1.63747 9.90476 1.5932 9.85016 1.5932C9.79555 1.5932 9.75128 1.63747 9.75128 1.69208C9.75128 1.74668 9.79555 1.79095 9.85016 1.79095Z" fill="white"/>
<path d="M10.1381 1.79095C10.1927 1.79095 10.2369 1.74668 10.2369 1.69208C10.2369 1.63747 10.1927 1.5932 10.1381 1.5932C10.0835 1.5932 10.0392 1.63747 10.0392 1.69208C10.0392 1.74668 10.0835 1.79095 10.1381 1.79095Z" fill="white"/>
<path d="M10.4254 1.79095C10.48 1.79095 10.5242 1.74668 10.5242 1.69208C10.5242 1.63747 10.48 1.5932 10.4254 1.5932C10.3707 1.5932 10.3265 1.63747 10.3265 1.69208C10.3265 1.74668 10.3707 1.79095 10.4254 1.79095Z" fill="white"/>
<path d="M10.7127 1.79095C10.7673 1.79095 10.8115 1.74668 10.8115 1.69208C10.8115 1.63747 10.7673 1.5932 10.7127 1.5932C10.6581 1.5932 10.6138 1.63747 10.6138 1.69208C10.6138 1.74668 10.6581 1.79095 10.7127 1.79095Z" fill="white"/>
<path d="M10.9999 1.79095C11.0545 1.79095 11.0988 1.74668 11.0988 1.69208C11.0988 1.63747 11.0545 1.5932 10.9999 1.5932C10.9453 1.5932 10.9011 1.63747 10.9011 1.69208C10.9011 1.74668 10.9453 1.79095 10.9999 1.79095Z" fill="white"/>
<path d="M11.289 1.79095C11.3436 1.79095 11.3879 1.74668 11.3879 1.69208C11.3879 1.63747 11.3436 1.5932 11.289 1.5932C11.2344 1.5932 11.1902 1.63747 11.1902 1.69208C11.1902 1.74668 11.2344 1.79095 11.289 1.79095Z" fill="white"/>
<path d="M11.5763 1.79095C11.6309 1.79095 11.6752 1.74668 11.6752 1.69208C11.6752 1.63747 11.6309 1.5932 11.5763 1.5932C11.5217 1.5932 11.4774 1.63747 11.4774 1.69208C11.4774 1.74668 11.5217 1.79095 11.5763 1.79095Z" fill="white"/>
<path d="M11.8636 1.79095C11.9182 1.79095 11.9625 1.74668 11.9625 1.69208C11.9625 1.63747 11.9182 1.5932 11.8636 1.5932C11.809 1.5932 11.7647 1.63747 11.7647 1.69208C11.7647 1.74668 11.809 1.79095 11.8636 1.79095Z" fill="white"/>
<path d="M12.1509 1.79095C12.2055 1.79095 12.2498 1.74668 12.2498 1.69208C12.2498 1.63747 12.2055 1.5932 12.1509 1.5932C12.0963 1.5932 12.052 1.63747 12.052 1.69208C12.052 1.74668 12.0963 1.79095 12.1509 1.79095Z" fill="white"/>
<path d="M12.4388 1.79095C12.4934 1.79095 12.5377 1.74668 12.5377 1.69208C12.5377 1.63747 12.4934 1.5932 12.4388 1.5932C12.3842 1.5932 12.3399 1.63747 12.3399 1.69208C12.3399 1.74668 12.3842 1.79095 12.4388 1.79095Z" fill="white"/>
<path d="M17.8353 0.270508H3.03748C1.84138 0.270508 0.872253 1.23969 0.872253 2.43573V31.4898C0.872253 32.6858 1.84144 33.655 3.03748 33.655H17.8348C19.0309 33.655 20 32.6858 20 31.4898V2.43573C20.0006 1.23969 19.0314 0.270508 17.8353 0.270508ZM16.3215 1.55631C16.4534 1.55631 16.5607 1.66361 16.5607 1.7955C16.5607 1.928 16.4528 2.03468 16.3215 2.03468C16.189 2.03468 16.0823 1.92738 16.0823 1.7955C16.0817 1.66361 16.189 1.55631 16.3215 1.55631ZM7.87512 1.34987H13.2228C13.4122 1.34987 13.5647 1.50291 13.5647 1.69108C13.5647 1.87987 13.4122 2.03229 13.2228 2.03229H7.87512C7.68572 2.03229 7.5333 1.87925 7.5333 1.69108C7.53391 1.50297 7.68572 1.34987 7.87512 1.34987ZM5.69346 32.2309H5.16696C5.13177 32.2309 5.10363 32.2022 5.10363 32.167C5.10363 32.1325 5.13177 32.1031 5.16696 32.1031H5.69346C5.72921 32.1031 5.75735 32.1325 5.75735 32.167C5.75674 32.2022 5.72859 32.2309 5.69346 32.2309ZM5.69346 31.9741H5.16696C5.13177 31.9741 5.10363 31.9459 5.10363 31.9108C5.10363 31.8756 5.13177 31.8469 5.16696 31.8469H5.69346C5.72921 31.8469 5.75735 31.8756 5.75735 31.9108C5.75674 31.9459 5.72859 31.9741 5.69346 31.9741ZM6.1367 32.1412C6.1367 32.2168 6.07569 32.2784 6.00009 32.2784C5.92443 32.2784 5.86287 32.2168 5.86287 32.1412V31.6892H4.99688V32.1412C4.99688 32.2168 4.93593 32.2784 4.86027 32.2784C4.78467 32.2784 4.72311 32.2168 4.72311 32.1412V31.5525C4.72311 31.4769 4.78467 31.4153 4.86027 31.4153H6.00009C6.07569 31.4153 6.1367 31.4769 6.1367 31.5525V32.1412ZM12.1505 32.099C12.1505 32.398 11.9078 32.6401 11.6087 32.6401H9.24063C8.94099 32.6401 8.69887 32.398 8.69887 32.099V31.6252C8.69887 31.3262 8.94099 31.0841 9.24063 31.0841H11.6087C11.9078 31.0841 12.1505 31.3262 12.1505 31.6252V32.099ZM15.6854 32.3042H15.2556C15.18 32.3042 15.119 32.2426 15.119 32.167C15.119 32.0914 15.1799 32.0304 15.2556 32.0304H15.6854C15.778 32.0304 15.853 31.9582 15.853 31.8697C15.853 31.7812 15.7779 31.7097 15.6854 31.7097H15.323C15.3095 31.7285 15.2925 31.7379 15.2621 31.7402C15.2545 31.7442 15.2415 31.7384 15.2322 31.7343L15.0088 31.6399C14.9818 31.6282 14.9636 31.6018 14.9636 31.5724C14.9636 31.5431 14.9812 31.5161 15.0082 31.505L15.2316 31.4106C15.2586 31.3989 15.2909 31.4053 15.312 31.4264C15.3149 31.4294 15.3179 31.4323 15.3202 31.4358H15.6855C15.9288 31.4358 16.1263 31.631 16.1263 31.8703C16.1262 32.1095 15.9287 32.3042 15.6854 32.3042ZM18.5565 30.4069H2.13513V3.60897H18.5565V30.4069V30.4069Z" fill="white"/>
</svg>
