<svg width="26" height="26" viewBox="0 0 26 26" fill="none" xmlns="http://www.w3.org/2000/svg">
<path d="M19.5 2.16669C17.7179 2.16669 16.25 3.63459 16.25 5.41669C16.25 5.62355 16.2736 5.82524 16.3114 6.02183L8.58203 10.5308C8.01509 10.051 7.29308 9.75002 6.5 9.75002C4.71791 9.75002 3.25 11.2179 3.25 13C3.25 14.7821 4.71791 16.25 6.5 16.25C7.29308 16.25 8.01509 15.949 8.58203 15.4693L16.3114 19.9761C16.2734 20.1733 16.25 20.3758 16.25 20.5834C16.25 22.3654 17.7179 23.8334 19.5 23.8334C21.2821 23.8334 22.75 22.3654 22.75 20.5834C22.75 18.8013 21.2821 17.3334 19.5 17.3334C18.7064 17.3334 17.9851 17.636 17.418 18.1162L9.68864 13.6052C9.72639 13.4086 9.75 13.2069 9.75 13C9.75 12.7932 9.72639 12.5915 9.68864 12.3949L17.418 7.88593C17.9849 8.36568 18.7069 8.66669 19.5 8.66669C21.2821 8.66669 22.75 7.19878 22.75 5.41669C22.75 3.63459 21.2821 2.16669 19.5 2.16669ZM19.5 4.33335C20.1111 4.33335 20.5833 4.80555 20.5833 5.41669C20.5833 6.02783 20.1111 6.50002 19.5 6.50002C18.8889 6.50002 18.4167 6.02783 18.4167 5.41669C18.4167 4.80555 18.8889 4.33335 19.5 4.33335ZM6.5 11.9167C7.11114 11.9167 7.58333 12.3889 7.58333 13C7.58333 13.6112 7.11114 14.0834 6.5 14.0834C5.88886 14.0834 5.41667 13.6112 5.41667 13C5.41667 12.3889 5.88886 11.9167 6.5 11.9167ZM19.5 19.5C20.1111 19.5 20.5833 19.9722 20.5833 20.5834C20.5833 21.1945 20.1111 21.6667 19.5 21.6667C18.8889 21.6667 18.4167 21.1945 18.4167 20.5834C18.4167 19.9722 18.8889 19.5 19.5 19.5Z" fill="white"/>
</svg>
