<svg width="28" height="25" viewBox="0 0 28 25" fill="none" xmlns="http://www.w3.org/2000/svg">
<path d="M25.9274 0.0023287C25.5656 0.019059 25.2247 0.123623 24.9218 0.240735H24.9176C24.6104 0.362029 23.1504 0.972685 20.9329 1.89703C18.7155 2.82556 15.8374 4.03014 12.9804 5.22636C7.27482 7.6146 1.66599 9.96521 1.66599 9.96521L1.73331 9.94011C1.73331 9.94011 1.34621 10.0656 0.942273 10.3416C0.736097 10.4755 0.508882 10.6595 0.311123 10.9481C0.113362 11.2367 -0.0465301 11.6801 0.0123779 12.136C0.109155 12.9097 0.614075 13.374 0.975934 13.6291C1.342 13.8885 1.69124 14.0098 1.69124 14.0098H1.69965L6.95924 15.7706C7.19487 16.5235 8.56236 20.9905 8.89056 22.0194C9.08412 22.6342 9.27346 23.019 9.50909 23.3118C9.6227 23.4624 9.75734 23.5878 9.91723 23.6882C9.98035 23.7259 10.0477 23.7551 10.115 23.7802C10.136 23.7928 10.1571 23.797 10.1823 23.8011L10.1276 23.7886C10.1444 23.7928 10.1571 23.8053 10.1697 23.8095C10.2118 23.8221 10.2412 23.8262 10.2959 23.8346C11.129 24.0856 11.7981 23.5711 11.7981 23.5711L11.8359 23.5418L14.9412 20.7311L20.1461 24.7004L20.2639 24.7506C21.3495 25.2232 22.4477 24.9597 23.0283 24.4955C23.6132 24.027 23.8404 23.4289 23.8404 23.4289L23.8783 23.3327L27.9008 2.85066C28.0144 2.34457 28.0439 1.87194 27.9176 1.41185C27.7914 0.951772 27.4674 0.520967 27.0761 0.290926C26.6806 0.0567018 26.2893 -0.0144016 25.9274 0.0023287ZM25.818 2.19818C25.8138 2.2651 25.8264 2.25673 25.797 2.38639V2.39894L21.8123 22.6677C21.7955 22.6969 21.766 22.7597 21.6861 22.8224C21.6019 22.8893 21.5346 22.9312 21.1854 22.7931L14.8192 17.9414L10.9734 21.4254L11.7812 16.2976C11.7812 16.2976 21.7534 7.05832 22.1826 6.66098C22.6118 6.26363 22.4687 6.17998 22.4687 6.17998C22.4982 5.6948 21.8207 6.03778 21.8207 6.03778L8.70542 14.1143L8.70122 14.0934L2.41496 11.9896V11.9854C2.41075 11.9854 2.40233 11.9812 2.39813 11.9812C2.40233 11.9812 2.43179 11.9687 2.43179 11.9687L2.46545 11.9519L2.49911 11.9394C2.49911 11.9394 8.11214 9.58878 13.8177 7.20053C16.6748 6.00432 19.5528 4.79974 21.766 3.8712C23.9793 2.94686 25.6161 2.26928 25.7086 2.23164C25.797 2.19818 25.7549 2.19818 25.818 2.19818Z" fill="white"/>
</svg>
