<svg width="29" height="27" viewBox="0 0 29 27" fill="none" xmlns="http://www.w3.org/2000/svg">
<path fill-rule="evenodd" clip-rule="evenodd" d="M27.002 3.56487L29 3.79969L28.1019 5.61107C27.6639 6.49441 27.2255 7.37776 26.7866 8.2611C26.7346 8.44819 26.6431 8.6122 26.5079 8.82575C26.4514 8.91497 26.2583 9.1988 26.2492 9.21243C26.1983 9.28937 26.1606 9.35005 26.1334 9.39867V12.7934C26.1334 21.48 17.7798 27 9.89091 27C8.27664 27 7.05016 26.9221 5.64577 26.6137C3.33459 26.1062 1.61461 25.0973 0.827554 23.334L0.0172448 21.5186L1.98649 21.3363C3.76795 21.1715 5.31253 20.8299 6.49869 20.3726C3.24225 19.8456 1.41736 18.4062 1.41736 15.7032V14.2819H2.82963C3.13992 14.2819 3.41972 14.2566 3.66985 14.2101C1.22585 12.7395 0.00172538 10.3805 0.00172538 7.10839C0.00145833 6.96892 0.0014584 6.96892 0.000625003 6.8198C-0.00855635 5.17052 0.0794716 4.28927 0.528116 3.16453C0.815649 2.4437 1.23126 1.77639 1.79062 1.16495L2.85634 0L3.89247 1.19167C7.30701 5.11877 10.6824 7.50126 14.1286 7.78944C14.1433 4.16574 16.8647 1.42341 20.4841 1.42341C22.1714 1.42341 23.7019 2.06793 24.9047 3.2301C25.563 3.36623 26.2621 3.47792 27.002 3.56487ZM23.8796 5.91524L23.4467 5.81658L23.1477 5.4864C22.4247 4.68804 21.5173 4.2659 20.4841 4.2659C18.418 4.2659 16.9531 5.74738 16.9531 7.81901C16.9531 8.15757 16.9444 8.3703 16.9025 8.64991C16.7353 9.7656 16.1134 10.6615 14.8347 10.6615C10.6006 10.6615 6.78082 8.37883 3.05601 4.48016C2.86398 5.0676 2.81882 5.67144 2.82513 6.80388C2.82598 6.95534 2.82598 6.95534 2.82627 7.10839C2.82627 10.0191 3.99805 11.6112 6.77251 12.4987L7.75698 12.8136V13.8532C7.75698 15.1138 6.5702 16.3005 4.83376 16.832C5.62976 17.4397 7.25767 17.7677 9.89141 17.7677H11.3037V19.189C11.3037 21.2252 8.97869 22.8196 5.46655 23.6521C6.61195 24.0053 8.13703 24.1575 9.89091 24.1575C16.4077 24.1575 23.3089 19.5973 23.3089 12.7934V9.24025C23.3089 8.82272 23.4291 8.46029 23.6289 8.08346C23.7071 7.93613 23.7931 7.79566 23.8992 7.63546C23.9192 7.6053 23.9934 7.49602 24.0522 7.40865L24.1642 7.18338C24.3455 6.81835 24.5268 6.45332 24.7081 6.08828C24.4264 6.03459 24.1503 5.97692 23.8796 5.91524Z" fill="white"/>
</svg>
