<svg width="32" height="20" viewBox="0 0 32 20" fill="none" xmlns="http://www.w3.org/2000/svg">
<path d="M31.2663 1.35439C31.4899 0.573013 31.2663 0 30.2091 0H26.7071C25.816 0 25.4088 0.495716 25.1852 1.04016C25.1852 1.04016 23.4046 5.60914 20.8815 8.57167C20.067 9.43371 19.6949 9.70593 19.251 9.70593C19.029 9.70593 18.7064 9.43371 18.7064 8.65233V1.35439C18.7064 0.416737 18.4493 0 17.7068 0H12.2037C11.648 0 11.3127 0.433541 11.3127 0.846917C11.3127 1.73416 12.5742 1.93917 12.7036 4.43959V9.86389C12.7036 11.0519 12.5008 11.2687 12.0536 11.2687C10.8671 11.2687 7.97986 6.68291 6.26635 1.43337C5.9326 0.413376 5.59564 0.00168107 4.70136 0.00168107H1.20089C0.199616 0.00168107 0 0.497396 0 1.04184C0 2.01983 1.18652 6.85935 5.52698 13.26C8.42061 17.6306 12.4944 20 16.2056 20C18.4302 20 18.7048 19.474 18.7048 18.5666V15.263C18.7048 14.2111 18.9172 13.9993 19.6215 13.9993C20.1389 13.9993 21.03 14.2749 23.1076 16.3804C25.4806 18.8775 25.8735 19.9983 27.2069 19.9983H30.7074C31.7071 19.9983 32.2069 19.4724 31.9194 18.4339C31.6049 17.4004 30.471 15.8965 28.9667 14.117C28.1491 13.102 26.9274 12.0097 26.5554 11.4636C26.0364 10.7595 26.1865 10.4487 26.5554 9.82356C26.557 9.82524 30.8224 3.50361 31.2663 1.35439V1.35439Z" fill="white"/>
</svg>
