<svg width="27" height="28" viewBox="0 0 27 28" fill="none" xmlns="http://www.w3.org/2000/svg">
<path fill-rule="evenodd" clip-rule="evenodd" d="M23.066 4.06959C21.8206 2.77575 20.3389 1.74983 18.7066 1.05128C17.0743 0.35272 15.3239 -0.00459077 13.5569 4.45272e-05C6.14724 4.45272e-05 0.115308 6.22415 0.112313 13.8748C0.112313 16.32 0.73078 18.7064 1.90632 20.8114L0 28L7.12661 26.0696C9.09791 27.1771 11.3064 27.7579 13.5509 27.7589H13.5569C20.965 27.7589 26.997 21.5348 26.9999 13.8841C27.005 12.0611 26.66 10.255 25.9848 8.57045C25.3095 6.88586 24.3175 5.3561 23.066 4.06959V4.06959ZM13.5569 25.4173H13.5524C11.551 25.4175 9.58645 24.8618 7.86488 23.8084L7.45756 23.558L3.22861 24.7033L4.35623 20.4482L4.09117 20.0124C2.97222 18.1738 2.37988 16.0461 2.38252 13.8748C2.38552 7.51626 7.39765 2.34316 13.5614 2.34316C15.0293 2.3398 16.4833 2.63695 17.8392 3.21743C19.1951 3.79791 20.426 4.65018 21.4607 5.72492C22.5009 6.79453 23.3254 8.06633 23.8865 9.4668C24.4476 10.8673 24.7342 12.3686 24.7297 13.8841C24.7267 20.2427 19.7146 25.4173 13.5569 25.4173ZM19.6861 16.779C19.3492 16.6043 17.699 15.7666 17.3905 15.6507C17.0835 15.5348 16.8604 15.4776 16.6357 15.8238C16.4111 16.17 15.7672 16.9506 15.571 17.1824C15.3748 17.4142 15.1787 17.4421 14.8432 17.269C14.5078 17.0958 13.4251 16.7295 12.1417 15.5487C11.1429 14.6291 10.469 13.4946 10.2729 13.1469C10.0767 12.7991 10.2519 12.6121 10.4211 12.439C10.5724 12.2844 10.7566 12.034 10.9243 11.8316C11.092 11.6291 11.1474 11.4853 11.2597 11.2535C11.372 11.0217 11.3166 10.8192 11.2313 10.6461C11.1474 10.4714 10.475 8.7651 10.195 8.07113C9.92394 7.3988 9.6469 7.48844 9.44025 7.47917C9.22622 7.47013 9.01202 7.46601 8.79782 7.4668C8.62749 7.47128 8.45989 7.51204 8.30553 7.58651C8.15118 7.66098 8.01339 7.76756 7.90082 7.89957C7.59233 8.24733 6.72528 9.08504 6.72528 10.7914C6.72528 12.4977 7.92927 14.1469 8.09699 14.3787C8.26471 14.6105 10.466 18.1113 13.8354 19.6136C14.6381 19.9706 15.264 20.1839 15.7507 20.3447C16.5549 20.609 17.2872 20.5703 17.8667 20.4822C18.5121 20.3833 19.8539 19.6445 20.1339 18.8346C20.4139 18.0247 20.4139 17.3308 20.3301 17.1855C20.2462 17.0402 20.0201 16.9521 19.6861 16.779" fill="white"/>
</svg>
